<svg version="1.2" xmlns="http://www.w3.org/2000/svg" viewBox="0 0 128 128" width="128" height="128">
	<title>Animation-svg</title>
	<style>
		.s0 { opacity: .5;fill: #ffffff } 
		.s1 { fill: #ffffff } 
	</style>
	<path id="Layer" class="s0" d="m120.8 64.8h-21.6l-10.4-17.6c0 0 2.4 6.4 0 11.2l-4 6.4 4.8 8.8c0.8 1.6 3.2 3.2 6.4 3.2h24c3.2 0 6.4-2.4 6.4-6.4 0-3.2-2.4-5.6-5.6-5.6z"/>
	<path id="Layer" class="s0" d="m46.4 88.8c-3.2-1.6-5.6-4.8-6.4-8l-8.8 15.2h-22.4c-3.2 0-6.4 2.4-6.4 6.4 0 3.2 2.4 6.4 6.4 6.4h24c2.4 0 4.8-0.8 5.6-3.2l9.6-15.2z"/>
	<path id="Layer" fill-rule="evenodd" class="s1" d="m34.4 52.8l13.6-16 13.6 6.4-17.6 29.6c-0.8 4.8 0.8 9.6 5.6 12.8l0.8 0.8 24.8 14.4v20.8c0 3.2 2.4 6.4 6.4 6.4 3.2 0 6.4-2.4 6.4-6.4v-24q0-2.4-2.4-4.8c0 0 0 0-0.8-0.8 0 0 0 0-0.8-0.8l-15.2-8.8 12.8-22.4 3.2-6.4c2.4-4 1.6-8.8-1.6-11.2l-8.8-5.6-1.6-0.8c-0.8 0-1.6-0.8-1.6-0.8l-21.6-11.2c-3.2-1.6-6.4 0-8 2.4l-16 18.4c-2.4 2.4-2.4 5.6 0 8 2.4 2.4 6.4 2.4 8.8 0z"/>
	<path id="Layer" class="s1" d="m96 40c-8.8 0-16-7.2-16-16 0-8.8 7.2-16 16-16 8.8 0 16 7.2 16 16 0 8.8-7.2 16-16 16z"/>
</svg>