<svg version="1.2" xmlns="http://www.w3.org/2000/svg" viewBox="0 0 136 136" width="40" height="40">
	<title>icon_keyframe-arrow-svg</title>
	<style>
		.s0 { opacity: .5;fill: #ffffff } 
		.s1 { fill: #ffffff } 
	</style>
	<g id="Layer">
		<path id="Layer" class="s0" d="m17.9 108.7c-5.5-5.4-8.9-12.7-8.9-20.8 0-8 3.4-15.4 8.9-20.7 5.5-5.3 13.1-8.6 21.4-8.6h44 1.5c3.2 0 6.1-1.3 8.2-3.3 2.1-2 3.4-4.8 3.4-7.9 0-3.1-1.3-5.9-3.4-8-2.1-2-5-3.3-8.2-3.3h-42.9l-8.9-8.7 8.9-9.4h42.9c8.3 0 15.8 3.3 21.3 8.7 5.6 5.3 9 12.6 9 20.7 0 8-3.4 15.4-9 20.7-5.5 5.3-13 8.6-21.3 8.6h-45.2-0.3c-3.2 0-6.2 1.3-8.3 3.3-2.1 2-3.4 4.9-3.4 7.9 0 2.6 0.9 5.1 2.5 7q0.4 0.5 0.9 1c-6 6.1-6 6.1-13.1 12.8z"/>
		<path id="Shape 2 copy 2" class="s1" d="m110.2 82.2l26 26-26 26-26-26z"/>
		<path id="Shape 2 copy 3" class="s1" d="m83 82.2l6.8 6.3-19.8 19.7 20.2 20.2-7.2 5.8-26-26z"/>
		<path id="Shape 2 copy 6" class="s1" d="m26 1.2l6.8 6.3-19.8 19.7 20.2 20.2-7.2 5.8-26-26z"/>
		<path id="Shape 2 copy 4" class="s1" d="m56 82.2l6.8 6.3-19.8 19.7 20.2 20.2-7.2 5.8-26-26z"/>
	</g>
</svg>