<svg version="1.2" xmlns="http://www.w3.org/2000/svg" viewBox="0 0 128 128" width="128" height="128">
	<title>Animation-svg</title>
	<style>
		.s0 { fill: #ffffff } 
		.s1 { opacity: .5;fill: #ffffff } 
	</style>
	<path id="Layer" fill-rule="evenodd" class="s0" d="m76.8 106.4l-21.6 21.6c0 0-1.6 0-4.8-2.4-2.4-3.2-2.4-4.8-2.4-4.8l21.6-21.6zm19.2 4c-16.8 0-30.4-13.6-30.4-30.4 0-16.8 13.6-30.4 30.4-30.4 16.8 0 30.4 13.6 30.4 30.4 0 16.8-13.6 30.4-30.4 30.4zm22.4-30.4c0-12.4-10-22.4-22.4-22.4-12.4 0-22.4 10-22.4 22.4 0 12.4 10 22.4 22.4 22.4 12.4 0 22.4-10 22.4-22.4z"/>
	<path id="Layer" class="s1" d="m46.4 88.8c-3.2-1.6-5.6-4.8-6.4-8l-8.8 15.2h-22.4c-3.2 0-6.4 2.4-6.4 6.4 0 3.2 2.4 6.4 6.4 6.4h24c2.4 0 4.8-0.8 5.6-3.2l9.6-15.2z"/>
	<path id="Layer" fill-rule="evenodd" class="s0" d="m25.6 52.8c-2.4-2.4-2.4-5.6 0-8l16-18.4c1.6-2.4 4.8-4 8-2.4l21.6 11.2c0 0 0.8 0.8 1.6 0.8l1.6 0.8 8.5 5.4c-15.7 5.4-26.9 20.3-26.9 37.8 0 3.6 0.5 7.1 1.4 10.5l-7-4.1-0.8-0.8c-4.8-3.2-6.4-8-5.6-12.8l17.6-29.6-13.6-6.4-13.6 16c-2.4 2.4-6.4 2.4-8.8 0zm62.4 68.8c0 4-3.2 6.4-6.4 6.4-4 0-6.4-3.2-6.4-6.4v-7.4c3.9 2.4 8.2 4.1 12.8 5z"/>
	<path id="Layer" class="s0" d="m96 40c-8.8 0-16-7.2-16-16 0-8.8 7.2-16 16-16 8.8 0 16 7.2 16 16 0 8.8-7.2 16-16 16z"/>
</svg>