<svg version="1.2" xmlns="http://www.w3.org/2000/svg" viewBox="0 0 128 128" width="128" height="128">
	<title>icon_color-balls-svg</title>
	<style>
		.s0 { opacity: .5;fill: #ffffff } 
		.s1 { fill: #ffffff } 
	</style>
	<g id="Folder 1">
		<path id="Layer" fill-rule="evenodd" class="s0" d="m61 113.3c-6.2 4.8-14 7.6-22.4 7.6-20.2 0-36.6-16.4-36.6-36.6 0-13.8 7.7-25.9 19.1-32.1l0.6 0.7c1.7 5.3 4.3 10.3 7.7 14.5l-7.1 7.2c-2-2.3-3.7-4.5-4.8-6.6-5.4 7.5-6.6 15.2-5.1 22 0.1 2.6 1.1 5.2 3 7.3 2.4 4.2 5.9 7.6 9.9 10l4.8 4.8c4.6 4.7 12.2 4.7 16.9 0l7.8-7.8c1.7 3.3 3.8 6.3 6.2 9zm65.2-29.2c0 18.1-14.8 32.9-32.9 32.9-13.8 0-25.7-8.5-30.6-20.6l1.3-1.3 17 17c4.7 4.7 12.3 4.7 16.9 0l14.2-14.2c4.7-4.6 4.7-12.2 0-16.9l-14.1-14.1c2.4-3.4 4.3-7.2 5.5-11.3l2.1-2.1c12.1 4.9 20.6 16.7 20.6 30.6zm-63-77.2c7.7 0 14.8 2.6 20.4 7q-1.4 0.8-2.6 2l-17 17-17-17c-1-1-2.2-1.9-3.5-2.4 5.5-4.2 12.3-6.6 19.7-6.6z"/>
		<path id="Layer 2" class="s1" d="m32.9 27.2c3.1-3.1 8.2-3.1 11.3 0l56.6 56.6c3.1 3.1 3.1 8.2 0 11.3l-5.7 5.7c-3.1 3.1-8.2 3.1-11.3 0l-56.6-56.6c-3.1-3.1-3.1-8.2 0-11.3zm67.9 5.6c3.1 3.2 3.1 8.2 0 11.4l-56.6 56.5c-3.1 3.2-8.1 3.2-11.3 0l-5.6-5.6c-3.2-3.2-3.2-8.2 0-11.3l56.5-56.6c3.2-3.1 8.2-3.1 11.4 0z"/>
	</g>
</svg>