<svg version="1.2" xmlns="http://www.w3.org/2000/svg" viewBox="0 0 128 128" width="128" height="128">
	<title>icon_color-balls-svg</title>
	<style>
		.s0 { fill: #ffffff } 
	</style>
	<g id="Folder 1">
		<path id="Shape 2" class="s0" d="m32.9 27.2c3.1-3.1 8.2-3.1 11.3 0l56.6 56.6c3.1 3.1 3.1 8.2 0 11.3l-5.7 5.7c-3.1 3.1-8.2 3.1-11.3 0l-56.6-56.6c-3.1-3.1-3.1-8.2 0-11.3zm67.9 5.6c3.1 3.2 3.1 8.2 0 11.4l-56.6 56.5c-3.1 3.2-8.1 3.2-11.3 0l-5.6-5.6c-3.2-3.2-3.2-8.2 0-11.3l56.5-56.6c3.2-3.1 8.2-3.1 11.4 0z"/>
	</g>
</svg>