<svg version="1.2" xmlns="http://www.w3.org/2000/svg" viewBox="0 0 128 128" width="128" height="128">
	<title>icon_plus_fill-white-svg</title>
	<style>
		.s0 { fill: #ffffff } 
	</style>
	<path id="Layer" fill-rule="evenodd" class="s0" d="m0.3 31c0-17.1 13.8-31 30.9-31h65.5c17.2 0 31.1 13.9 31.1 31v65.9c0 17.1-13.9 31-31.1 31h-65.5c-17.1 0-30.9-13.9-30.9-31zm77.8 46.5h19c3.7 0 5.2-1.6 5.2-5.3v-16.3c0-3.7-1.5-5.2-5.2-5.2h-19v-19.7c0-3.6-1.5-5.2-5.1-5.2h-17.9c-3.6 0-5.2 1.6-5.2 5.2v19.7h-18.9c-3.7 0-5.2 1.5-5.2 5.2v16.4c0 3.6 1.5 5.2 5.2 5.2h18.9v19.6c0 3.7 1.6 5.2 5.2 5.2h17.9c3.6 0 5.1-1.5 5.1-5.2z"/>
</svg>