<svg version="1.2" xmlns="http://www.w3.org/2000/svg" viewBox="0 0 16 16" width="16" height="16">
	<title>CurveEditorTab-svg</title>
	<style>
		.s0 { fill: #ffffff } 
		.s1 { opacity: .5;fill: #ffffff } 
	</style>
	<path id="Layer" class="s0" d="m16 5.9l-0.5 1.1c-0.5 1.2-1.3 3-3.9 3-1.1 0-2.1-1.3-3.2-2.7-1.3-1.7-2.7-3.4-4.7-3.4-0.7 0-1.5 0.2-2.1 0.6-0.7 0.3-1.2 0.9-1.6 1.5v3.4q0.2-0.3 0.4-0.7c0.8-1.5 1.7-3 3.3-3 1.2 0 2.2 1.3 3.3 2.7 1.3 1.7 2.6 3.4 4.6 3.4 0.9 0.1 1.7-0.1 2.5-0.5 0.7-0.3 1.4-0.9 1.9-1.6z"/>
	<path id="Layer" fill-rule="evenodd" class="s1" d="m16 0v16h-16v-16zm-10 1v4h4v-4zm0 9h4v-4h-4zm-1-4h-4v4h4zm-4-5v4h4v-4zm4 14v-4h-4v4zm5 0v-4h-4v4zm5-4h-4v4h4zm0-5h-4v4h4zm0-5h-4v4h4z"/>
</svg>