<svg version="1.2" xmlns="http://www.w3.org/2000/svg" viewBox="0 0 128 128" width="128" height="128">
	<title>icon_rgb-svg</title>
	<style>
		.s0 { opacity: .5;fill: #ffffff } 
		.s1 { fill: #ffffff } 
	</style>
	<g id="Folder 1">
		<path id="Layer" fill-rule="evenodd" class="s0" d="m61 113.3c-6.2 4.8-14 7.6-22.4 7.6-20.2 0-36.6-16.4-36.6-36.6 0-14 7.9-26.2 19.5-32.3 2 7.2 5.9 13.7 11 18.9 4.9 4.8 10.8 8.5 17.5 10.7q-0.1 1.4-0.1 2.8c0 11.1 4.2 21.2 11.1 28.9zm-20.8-25.6c-6.7-2.1-18.9-12.3-22.7-19.7-17.5 24.3 9 50.1 29.2 41.2-5.1-6.8-6.6-20.5-6.5-21.5z"/>
		<path id="Layer" fill-rule="evenodd" class="s0" d="m126.2 84.1c0 18.1-14.8 32.9-32.9 32.9-18.2 0-33-14.8-33-32.9q0-0.6 0-1.2 2.9 0.4 5.9 0.4c10.8 0 20.5-4.3 27.6-11.4 5.1-5.1 8.8-11.6 10.4-18.9 12.8 4.5 22 16.7 22 31.1z"/>
		<path id="Layer" fill-rule="evenodd" class="s1" d="m63.2 72.7c-18.2 0-32.9-14.7-32.9-32.9 0-18.2 14.7-32.9 32.9-32.9 18.2 0 32.9 14.7 32.9 32.9 0 18.2-14.7 32.9-32.9 32.9z"/>
	</g>
</svg>