<svg version="1.2" xmlns="http://www.w3.org/2000/svg" viewBox="0 0 128 128" width="128" height="128">
	<title>Paint_SwapColors_40x</title>
	<style>
		.s0 { fill: #ffffff } 
		.s1 { opacity: .5;fill: #ffffff } 
	</style>
	<path id="Shape 1" class="s0" d="m86 97.5c-18.2 0-33-14.7-33-33 0-18.2 24.1-39.7 33-58.5 10.8 18.5 33 40.3 33 58.5 0 18.3-14.8 33-33 33z"/>
	<path id="Shape 3" fill-rule="evenodd" class="s1" d="m42 119c-18.2 0-33-14.8-33-33 0-18.2 24.1-39.7 33-58.5 2.3 3.9 5.1 7.9 8.1 12.1-5.1 7.2-8.1 15.9-8.1 25.4 0 18.2 11 33.7 26.7 40.5-6 8.2-15.7 13.5-26.7 13.5z"/>
</svg>