<svg version="1.2" xmlns="http://www.w3.org/2000/svg" viewBox="0 0 123 123" width="128" height="128">
	<title>electric-plugin-icon-svg</title>
	<style>
		.s0 { fill: #ffffff } 
	</style>
	<path id="Layer" fill-rule="evenodd" class="s0" d="m20.1 59.7l-5.6-5.6c-10.4-10.4-11.9-21.7-2.1-33.6l-12.4-12.5 8-8 12.4 12.3c12.3-9.7 22.3-9.2 33.1 1.6l6.2 6.2zm82.7 3l5.6 5.6c10.4 10.5 11.9 21.8 2.1 33.7l12.4 12.4-8 8-12.4-12.3c-12.3 9.7-22.3 9.2-33.1-1.6l-6.2-6.2zm-25.1 36l21.4-21.5-3.2-3.1-21.4 21.4zm-32.5-74.9l-21.4 21.4 3.2 3.2 21.4-21.4z"/>
	<path id="Layer copy" class="s0" d="m69.8 26.2l-7.8 7.7-8 8.1-11.8 11.8-8.1 8-7.5 7.5c-1.4 1.4-3.7 1.4-5.1 0l-2.9-2.9c-1.4-1.4-1.4-3.7 0-5.1l43.1-43.2c1.4-1.4 3.7-1.4 5.1 0l3 3c1.4 1.4 1.4 3.7 0 5.1zm-16.7 70.1l7.8-7.7-15.6-15.6c-2.2-2.2-2.2-5.9 0-8.1 2.2-2.2 5.8-2.2 8 0l15.6 15.6 11.8-11.9-15.6-15.5c-2.2-2.2-2.2-5.8 0-8 2.2-2.2 5.9-2.2 8.1 0l15.6 15.6 7.5-7.6c1.4-1.4 3.7-1.4 5.1 0l2.9 3c1.4 1.4 1.4 3.7 0 5.1l-43.2 43.1c-1.3 1.4-3.6 1.4-5 0l-3-2.9c-1.4-1.4-1.4-3.7 0-5.1z"/>
</svg>