<svg version="1.2" xmlns="http://www.w3.org/2000/svg" viewBox="0 0 128 128" width="128" height="128">
	<title>Paint_SwapColors_40x</title>
	<style>
		.s0 { fill: #ffffff } 
		.s1 { opacity: .5;fill: #ffffff } 
	</style>
	<path id="Layer" fill-rule="evenodd" class="s0" d="m76.8 106.4l-21.6 21.6c0 0-1.6 0-4.8-2.4-2.4-3.2-2.4-4.8-2.4-4.8l21.6-21.6zm19.2 4c-16.8 0-30.4-13.6-30.4-30.4 0-16.8 13.6-30.4 30.4-30.4 16.8 0 30.4 13.6 30.4 30.4 0 16.8-13.6 30.4-30.4 30.4zm22.4-30.4c0-12.4-10-22.4-22.4-22.4-12.4 0-22.4 10-22.4 22.4 0 12.4 10 22.4 22.4 22.4 12.4 0 22.4-10 22.4-22.4z"/>
	<path id="Shape 1" fill-rule="evenodd" class="s0" d="m53 64.5c0-18.2 24.1-39.7 33-58.5 7.1 12.1 19 25.6 26.4 38.6-5-2.3-10.5-3.6-16.4-3.6-21.6 0-39 17.4-39 39q0 0.2 0 0.3c-2.6-4.7-4-10.1-4-15.8z"/>
	<path id="Shape 3" fill-rule="evenodd" class="s1" d="m9 86c0-18.2 24.1-39.7 33-58.5 2.3 3.9 5.1 7.9 8.1 12.1-5.1 7.2-8.1 15.9-8.1 25.4 0 13.1 5.7 24.9 14.8 33l-20.5 20.5c-15.5-2.7-27.3-16.2-27.3-32.5z"/>
</svg>