<svg version="1.2" xmlns="http://www.w3.org/2000/svg" viewBox="0 0 16 16" width="16" height="16">
	<title>Preferences-svg</title>
	<style>
		.s0 { opacity: .5;fill: #ffffff } 
		.s1 { fill: #ffffff } 
	</style>
	<path id="Layer" class="s0" d="m0 2q0-0.4 0.3-0.7 0.3-0.3 0.7-0.3h14q0.4 0 0.7 0.3 0.3 0.3 0.3 0.7 0 0.4-0.3 0.7-0.3 0.3-0.7 0.3h-14q-0.4 0-0.7-0.3-0.3-0.3-0.3-0.7z"/>
	<path id="Layer" class="s1" d="m5 2c0-1.1 0.9-2 2-2 1.1 0 2 0.9 2 2 0 1.1-0.9 2-2 2-1.1 0-2-0.9-2-2z"/>
	<path id="Layer" class="s0" d="m0 8q0-0.4 0.3-0.7 0.3-0.3 0.7-0.3h14q0.4 0 0.7 0.3 0.3 0.3 0.3 0.7 0 0.4-0.3 0.7-0.3 0.3-0.7 0.3h-14q-0.4 0-0.7-0.3-0.3-0.3-0.3-0.7z"/>
	<path id="Layer" class="s1" d="m9 8c0-1.1 0.9-2 2-2 1.1 0 2 0.9 2 2 0 1.1-0.9 2-2 2-1.1 0-2-0.9-2-2z"/>
	<path id="Layer" class="s0" d="m0 14q0-0.4 0.3-0.7 0.3-0.3 0.7-0.3h14q0.4 0 0.7 0.3 0.3 0.3 0.3 0.7 0 0.4-0.3 0.7-0.3 0.3-0.7 0.3h-14q-0.4 0-0.7-0.3-0.3-0.3-0.3-0.7z"/>
	<path id="Layer" class="s1" d="m3 14c0-1.1 0.9-2 2-2 1.1 0 2 0.9 2 2 0 1.1-0.9 2-2 2-1.1 0-2-0.9-2-2z"/>
</svg>